<svg xmlns="http://www.w3.org/2000/svg" xmlns:xlink="http://www.w3.org/1999/xlink" width="127" height="253" viewBox="0 0 127 253">
    <defs>
        <path id="w75bsqf4ea" d="M.05 252.75c69.766-.203 126.261-56.596 126.261-126.136C126.311 57.074 69.816.682.05.477v252.274z"/>
        <path id="sa9iqi4skc" d="M.05 252.75c69.766-.203 126.261-56.596 126.261-126.136C126.311 57.074 69.816.682.05.477v252.274z"/>
        <path id="7modoar99e" d="M.05 252.75c69.766-.203 126.261-56.596 126.261-126.136C126.311 57.074 69.816.682.05.477v252.274z"/>
        <path id="z1lts6whbg" d="M.05 252.75c69.766-.203 126.261-56.596 126.261-126.136C126.311 57.074 69.816.682.05.477v252.274z"/>
        <path id="pi4j67a1vi" d="M.05 252.75c69.766-.203 126.261-56.596 126.261-126.136C126.311 57.074 69.816.682.05.477v252.274z"/>
        <path id="61qe8yxjkk" d="M.05 252.75c69.766-.203 126.261-56.596 126.261-126.136C126.311 57.074 69.816.682.05.477v252.274z"/>
        <path id="syffupp99m" d="M.05 252.75c69.766-.203 126.261-56.596 126.261-126.136C126.311 57.074 69.816.682.05.477v252.274z"/>
        <path id="v944ragxgo" d="M.05 252.75c69.766-.203 126.261-56.596 126.261-126.136C126.311 57.074 69.816.682.05.477v252.274z"/>
        <path id="n7qwhpck4q" d="M.05 252.75c69.766-.203 126.261-56.596 126.261-126.136C126.311 57.074 69.816.682.05.477v252.274z"/>
        <path id="z004tda6qs" d="M.05 252.75c69.766-.203 126.261-56.596 126.261-126.136C126.311 57.074 69.816.682.05.477v252.274z"/>
        <path id="8qgg2kso2u" d="M.05 252.75c69.766-.203 126.261-56.596 126.261-126.136C126.311 57.074 69.816.682.05.477v252.274z"/>
        <path id="f3gqtykbsw" d="M.05 252.75c69.766-.203 126.261-56.596 126.261-126.136C126.311 57.074 69.816.682.05.477v252.274z"/>
        <path id="lx8uh82lxy" d="M.05 252.75c69.766-.203 126.261-56.596 126.261-126.136C126.311 57.074 69.816.682.05.477v252.274z"/>
        <path id="bcs0shmt0A" d="M.05 252.75c69.766-.203 126.261-56.596 126.261-126.136C126.311 57.074 69.816.682.05.477v252.274z"/>
        <path id="c0vkxk467C" d="M.05 252.75c69.766-.203 126.261-56.596 126.261-126.136C126.311 57.074 69.816.682.05.477v252.274z"/>
        <path id="ty4k4p11zE" d="M.05 252.75c69.766-.203 126.261-56.596 126.261-126.136C126.311 57.074 69.816.682.05.477v252.274z"/>
        <path id="4018e9bcyG" d="M.05 252.75c69.766-.203 126.261-56.596 126.261-126.136C126.311 57.074 69.816.682.05.477v252.274z"/>
        <path id="ybe2wpv1qI" d="M.05 252.75c69.766-.203 126.261-56.596 126.261-126.136C126.311 57.074 69.816.682.05.477v252.274z"/>
        <path id="22f9k31pfK" d="M.05 252.75c69.766-.203 126.261-56.596 126.261-126.136C126.311 57.074 69.816.682.05.477v252.274z"/>
        <path id="a22q4bvhvM" d="M.05 252.75c69.766-.203 126.261-56.596 126.261-126.136C126.311 57.074 69.816.682.05.477v252.274z"/>
        <path id="1x0oxagwtO" d="M.05 252.75c69.766-.203 126.261-56.596 126.261-126.136C126.311 57.074 69.816.682.05.477v252.274z"/>
        <path id="4hifm7kikQ" d="M.05 252.75c69.766-.203 126.261-56.596 126.261-126.136C126.311 57.074 69.816.682.05.477v252.274z"/>
        <path id="7xiek9jxyS" d="M.05 252.75c69.766-.203 126.261-56.596 126.261-126.136C126.311 57.074 69.816.682.05.477v252.274z"/>
        <path id="17swps25fU" d="M.05 252.75c69.766-.203 126.261-56.596 126.261-126.136C126.311 57.074 69.816.682.05.477v252.274z"/>
        <path id="6eqacxr5zW" d="M.05 252.75c69.766-.203 126.261-56.596 126.261-126.136C126.311 57.074 69.816.682.05.477v252.274z"/>
        <path id="7zx34aevsY" d="M.05 252.75c69.766-.203 126.261-56.596 126.261-126.136C126.311 57.074 69.816.682.05.477v252.274z"/>
        <path id="oxovhrtktaa" d="M.05 252.75c69.766-.203 126.261-56.596 126.261-126.136C126.311 57.074 69.816.682.05.477v252.274z"/>
        <path id="4nut77n3zac" d="M.05 252.75c69.766-.203 126.261-56.596 126.261-126.136C126.311 57.074 69.816.682.05.477v252.274z"/>
        <path id="7350ugaajae" d="M.05 252.75c69.766-.203 126.261-56.596 126.261-126.136C126.311 57.074 69.816.682.05.477v252.274z"/>
        <path id="6tejx30gqag" d="M.05 252.75c69.766-.203 126.261-56.596 126.261-126.136C126.311 57.074 69.816.682.05.477v252.274z"/>
        <path id="lke2aw4ixai" d="M.05 252.75c69.766-.203 126.261-56.596 126.261-126.136C126.311 57.074 69.816.682.05.477v252.274z"/>
        <path id="g9kzwf576ak" d="M.05 252.75c69.766-.203 126.261-56.596 126.261-126.136C126.311 57.074 69.816.682.05.477v252.274z"/>
        <path id="9uzwe7gswam" d="M.05 252.75c69.766-.203 126.261-56.596 126.261-126.136C126.311 57.074 69.816.682.05.477v252.274z"/>
        <path id="lgt35b809ao" d="M.05 252.75c69.766-.203 126.261-56.596 126.261-126.136C126.311 57.074 69.816.682.05.477v252.274z"/>
        <path id="iy7uenyesaq" d="M.05 252.75c69.766-.203 126.261-56.596 126.261-126.136C126.311 57.074 69.816.682.05.477v252.274z"/>
        <path id="xaoej7kn2as" d="M.05 252.75c69.766-.203 126.261-56.596 126.261-126.136C126.311 57.074 69.816.682.05.477v252.274z"/>
        <path id="pe611jjkaau" d="M.05 252.75c69.766-.203 126.261-56.596 126.261-126.136C126.311 57.074 69.816.682.05.477v252.274z"/>
        <path id="zwcxrixjxaw" d="M.05 252.75c69.766-.203 126.261-56.596 126.261-126.136C126.311 57.074 69.816.682.05.477v252.274z"/>
        <path id="ftd0iszivay" d="M.05 252.75c69.766-.203 126.261-56.596 126.261-126.136C126.311 57.074 69.816.682.05.477v252.274z"/>
        <path id="eosz9xq1caA" d="M.05 252.75c69.766-.203 126.261-56.596 126.261-126.136C126.311 57.074 69.816.682.05.477v252.274z"/>
        <path id="thxseyhl3aC" d="M.05 252.75c69.766-.203 126.261-56.596 126.261-126.136C126.311 57.074 69.816.682.05.477v252.274z"/>
        <path id="t53ucuq84aE" d="M.05 252.75c69.766-.203 126.261-56.596 126.261-126.136C126.311 57.074 69.816.682.05.477v252.274z"/>
        <path id="4igah7kxuaG" d="M.05 252.75c69.766-.203 126.261-56.596 126.261-126.136C126.311 57.074 69.816.682.05.477v252.274z"/>
        <path id="0vvm9v2opaI" d="M.05 252.75c69.766-.203 126.261-56.596 126.261-126.136C126.311 57.074 69.816.682.05.477v252.274z"/>
        <path id="f52gvqtw5aK" d="M.05 252.75c69.766-.203 126.261-56.596 126.261-126.136C126.311 57.074 69.816.682.05.477v252.274z"/>
        <path id="ghw0ymt9eaM" d="M.05 252.75c69.766-.203 126.261-56.596 126.261-126.136C126.311 57.074 69.816.682.05.477v252.274z"/>
        <path id="bvtnxkthvaO" d="M.05 252.75c69.766-.203 126.261-56.596 126.261-126.136C126.311 57.074 69.816.682.05.477v252.274z"/>
        <path id="i1nisc5udaQ" d="M.05 252.75c69.766-.203 126.261-56.596 126.261-126.136C126.311 57.074 69.816.682.05.477v252.274z"/>
        <path id="t5rey1tncaS" d="M.05 252.75c69.766-.203 126.261-56.596 126.261-126.136C126.311 57.074 69.816.682.05.477v252.274z"/>
        <path id="87krfjrwwaU" d="M.05 252.75c69.766-.203 126.261-56.596 126.261-126.136C126.311 57.074 69.816.682.05.477v252.274z"/>
        <path id="2exa93wbgaW" d="M.05 252.75c69.766-.203 126.261-56.596 126.261-126.136C126.311 57.074 69.816.682.05.477v252.274z"/>
        <path id="9booax566aY" d="M.05 252.75c69.766-.203 126.261-56.596 126.261-126.136C126.311 57.074 69.816.682.05.477v252.274z"/>
        <path id="maa24ogkrba" d="M.05 252.75c69.766-.203 126.261-56.596 126.261-126.136C126.311 57.074 69.816.682.05.477v252.274z"/>
        <path id="nb2dsohg2bc" d="M.05 252.75c69.766-.203 126.261-56.596 126.261-126.136C126.311 57.074 69.816.682.05.477v252.274z"/>
        <path id="p952a3j4nbe" d="M.05 252.75c69.766-.203 126.261-56.596 126.261-126.136C126.311 57.074 69.816.682.05.477v252.274z"/>
        <path id="ife82f3dobg" d="M.05 252.75c69.766-.203 126.261-56.596 126.261-126.136C126.311 57.074 69.816.682.05.477v252.274z"/>
        <path id="h47slxxcmbi" d="M.05 252.75c69.766-.203 126.261-56.596 126.261-126.136C126.311 57.074 69.816.682.05.477v252.274z"/>
        <path id="hygp47xjebk" d="M.05 252.75c69.766-.203 126.261-56.596 126.261-126.136C126.311 57.074 69.816.682.05.477v252.274z"/>
        <path id="jksjrlgggbm" d="M.05 252.75c69.766-.203 126.261-56.596 126.261-126.136C126.311 57.074 69.816.682.05.477v252.274z"/>
        <path id="rmysqavd6bo" d="M.05 252.75c69.766-.203 126.261-56.596 126.261-126.136C126.311 57.074 69.816.682.05.477v252.274z"/>
        <path id="kh8feq2wnbq" d="M.05 252.75c69.766-.203 126.261-56.596 126.261-126.136C126.311 57.074 69.816.682.05.477v252.274z"/>
        <path id="6zjdu2so2bs" d="M.05 252.75c69.766-.203 126.261-56.596 126.261-126.136C126.311 57.074 69.816.682.05.477v252.274z"/>
        <path id="wtr3zsnt6bu" d="M.05 252.75c69.766-.203 126.261-56.596 126.261-126.136C126.311 57.074 69.816.682.05.477v252.274z"/>
        <path id="4whyxhptabw" d="M.05 252.75c69.766-.203 126.261-56.596 126.261-126.136C126.311 57.074 69.816.682.05.477v252.274z"/>
        <path id="kinpwst5sby" d="M.05 252.75c69.766-.203 126.261-56.596 126.261-126.136C126.311 57.074 69.816.682.05.477v252.274z"/>
        <path id="8bzwv9sdxbA" d="M.05 252.75c69.766-.203 126.261-56.596 126.261-126.136C126.311 57.074 69.816.682.05.477v252.274z"/>
        <path id="jlf1v3jnbbC" d="M.05 252.75c69.766-.203 126.261-56.596 126.261-126.136C126.311 57.074 69.816.682.05.477v252.274z"/>
        <path id="58tb1wtbtbE" d="M.05 252.75c69.766-.203 126.261-56.596 126.261-126.136C126.311 57.074 69.816.682.05.477v252.274z"/>
        <path id="xwdrajhlcbG" d="M.05 252.75c69.766-.203 126.261-56.596 126.261-126.136C126.311 57.074 69.816.682.05.477v252.274z"/>
        <path id="cs0mhp5uebI" d="M.05 252.75c69.766-.203 126.261-56.596 126.261-126.136C126.311 57.074 69.816.682.05.477v252.274z"/>
        <path id="vrzzqh5jnbK" d="M.05 252.75c69.766-.203 126.261-56.596 126.261-126.136C126.311 57.074 69.816.682.05.477v252.274z"/>
        <path id="4pg5roa69bM" d="M.05 252.75c69.766-.203 126.261-56.596 126.261-126.136C126.311 57.074 69.816.682.05.477v252.274z"/>
        <path id="sj6alxm8obO" d="M.05 252.75c69.766-.203 126.261-56.596 126.261-126.136C126.311 57.074 69.816.682.05.477v252.274z"/>
        <path id="r2qt9nymtbQ" d="M.05 252.75c69.766-.203 126.261-56.596 126.261-126.136C126.311 57.074 69.816.682.05.477v252.274z"/>
        <path id="sllcbve6sbS" d="M.05 252.75c69.766-.203 126.261-56.596 126.261-126.136C126.311 57.074 69.816.682.05.477v252.274z"/>
        <path id="nibpace5qbU" d="M.05 252.75c69.766-.203 126.261-56.596 126.261-126.136C126.311 57.074 69.816.682.05.477v252.274z"/>
        <path id="nlz4c6xa9bW" d="M.05 252.75c69.766-.203 126.261-56.596 126.261-126.136C126.311 57.074 69.816.682.05.477v252.274z"/>
        <path id="ha4khxc4ybY" d="M.05 252.75c69.766-.203 126.261-56.596 126.261-126.136C126.311 57.074 69.816.682.05.477v252.274z"/>
        <path id="tkkx9yl17ca" d="M.05 252.75c69.766-.203 126.261-56.596 126.261-126.136C126.311 57.074 69.816.682.05.477v252.274z"/>
        <path id="8j1zbobepcc" d="M.05 252.75c69.766-.203 126.261-56.596 126.261-126.136C126.311 57.074 69.816.682.05.477v252.274z"/>
        <path id="0vg1h7gmgce" d="M.05 252.75c69.766-.203 126.261-56.596 126.261-126.136C126.311 57.074 69.816.682.05.477v252.274z"/>
        <path id="ia7l38dn3cg" d="M.05 252.75c69.766-.203 126.261-56.596 126.261-126.136C126.311 57.074 69.816.682.05.477v252.274z"/>
        <path id="z6ryysue2ci" d="M.05 252.75c69.766-.203 126.261-56.596 126.261-126.136C126.311 57.074 69.816.682.05.477v252.274z"/>
        <path id="54ot9l45gck" d="M.05 252.75c69.766-.203 126.261-56.596 126.261-126.136C126.311 57.074 69.816.682.05.477v252.274z"/>
        <path id="q9ugmpdawcm" d="M.05 252.75c69.766-.203 126.261-56.596 126.261-126.136C126.311 57.074 69.816.682.05.477v252.274z"/>
        <path id="lywsubbd5co" d="M.05 252.75c69.766-.203 126.261-56.596 126.261-126.136C126.311 57.074 69.816.682.05.477v252.274z"/>
        <path id="rqwc8baq2cq" d="M.05 252.75c69.766-.203 126.261-56.596 126.261-126.136C126.311 57.074 69.816.682.05.477v252.274z"/>
        <path id="0yfaevtuocs" d="M.05 252.75c69.766-.203 126.261-56.596 126.261-126.136C126.311 57.074 69.816.682.05.477v252.274z"/>
        <path id="5wlootdy1cu" d="M.05 252.75c69.766-.203 126.261-56.596 126.261-126.136C126.311 57.074 69.816.682.05.477v252.274z"/>
        <path id="05ozphggbcw" d="M.05 252.75c69.766-.203 126.261-56.596 126.261-126.136C126.311 57.074 69.816.682.05.477v252.274z"/>
        <path id="i1dq1m2j0cy" d="M.05 252.75c69.766-.203 126.261-56.596 126.261-126.136C126.311 57.074 69.816.682.05.477v252.274z"/>
        <path id="l317anawscA" d="M.05 252.75c69.766-.203 126.261-56.596 126.261-126.136C126.311 57.074 69.816.682.05.477v252.274z"/>
        <path id="9kdh2dlbzcC" d="M.05 252.75c69.766-.203 126.261-56.596 126.261-126.136C126.311 57.074 69.816.682.05.477v252.274z"/>
        <path id="2dj00f34fcE" d="M.05 252.75c69.766-.203 126.261-56.596 126.261-126.136C126.311 57.074 69.816.682.05.477v252.274z"/>
        <path id="hhjvp40axcG" d="M.05 252.75c69.766-.203 126.261-56.596 126.261-126.136C126.311 57.074 69.816.682.05.477v252.274z"/>
        <path id="idsp3btghcI" d="M.05 252.75c69.766-.203 126.261-56.596 126.261-126.136C126.311 57.074 69.816.682.05.477v252.274z"/>
    </defs>
    <g fill="none" fill-rule="evenodd">
        <g>
            <g>
                <g transform="translate(0 -44) translate(0 44)">
                    <mask id="mnzvrm2o7b" fill="#fff">
                        <use xlink:href="#w75bsqf4ea"/>
                    </mask>
                    <path fill="#DC5526" d="M-0.328 305.004L-179.424 126.614 -0.328 -51.776 178.767 126.614z" mask="url(#mnzvrm2o7b)"/>
                </g>
                <g transform="translate(0 -44) translate(0 44)">
                    <mask id="52vcyto3bd" fill="#fff">
                        <use xlink:href="#sa9iqi4skc"/>
                    </mask>
                    <path fill="#DC5526" d="M2.446 307.768L-176.65 129.377 2.446 -49.013 181.542 129.377z" mask="url(#52vcyto3bd)"/>
                </g>
                <g transform="translate(0 -44) translate(0 44)">
                    <mask id="iuu5lbdsbf" fill="#fff">
                        <use xlink:href="#7modoar99e"/>
                    </mask>
                    <path fill="#DC5726" d="M5.22 310.531L-173.876 132.141 5.22 -46.249 184.316 132.141z" mask="url(#iuu5lbdsbf)"/>
                </g>
                <g transform="translate(0 -44) translate(0 44)">
                    <mask id="ud7upwzoah" fill="#fff">
                        <use xlink:href="#z1lts6whbg"/>
                    </mask>
                    <path fill="#DF5826" d="M7.995 313.295L-171.102 134.904 7.995 -43.486 187.091 134.904z" mask="url(#ud7upwzoah)"/>
                </g>
                <g transform="translate(0 -44) translate(0 44)">
                    <mask id="grfb26kvbj" fill="#fff">
                        <use xlink:href="#pi4j67a1vi"/>
                    </mask>
                    <path fill="#DF5A26" d="M10.769 316.059L-168.327 137.667 10.769 -40.722 189.865 137.667z" mask="url(#grfb26kvbj)"/>
                </g>
                <g transform="translate(0 -44) translate(0 44)">
                    <mask id="dju7ja2hbl" fill="#fff">
                        <use xlink:href="#61qe8yxjkk"/>
                    </mask>
                    <path fill="#DF5A26" d="M13.544 318.822L-165.552 140.431 13.544 -37.958 192.639 140.431z" mask="url(#dju7ja2hbl)"/>
                </g>
                <g transform="translate(0 -44) translate(0 44)">
                    <mask id="ntlbrr5l3n" fill="#fff">
                        <use xlink:href="#syffupp99m"/>
                    </mask>
                    <path fill="#E15A25" d="M16.318 321.585L-162.778 143.195 16.318 -35.196 195.414 143.195z" mask="url(#ntlbrr5l3n)"/>
                </g>
                <g transform="translate(0 -44) translate(0 44)">
                    <mask id="8jvupb1qwp" fill="#fff">
                        <use xlink:href="#v944ragxgo"/>
                    </mask>
                    <path fill="#E15C25" d="M19.092 324.349L-160.004 145.958 19.092 -32.432 198.189 145.958z" mask="url(#8jvupb1qwp)"/>
                </g>
                <g transform="translate(0 -44) translate(0 44)">
                    <mask id="gct8gvqeir" fill="#fff">
                        <use xlink:href="#n7qwhpck4q"/>
                    </mask>
                    <path fill="#E15C25" d="M21.867 327.112L-157.229 148.721 21.867 -29.669 200.963 148.721z" mask="url(#gct8gvqeir)"/>
                </g>
                <g transform="translate(0 -44) translate(0 44)">
                    <mask id="v7so5cnjgt" fill="#fff">
                        <use xlink:href="#z004tda6qs"/>
                    </mask>
                    <path fill="#E15C25" d="M24.641 329.876L-154.455 151.485 24.641 -26.905 203.737 151.485z" mask="url(#v7so5cnjgt)"/>
                </g>
                <g transform="translate(0 -44) translate(0 44)">
                    <mask id="hsbppdld1v" fill="#fff">
                        <use xlink:href="#8qgg2kso2u"/>
                    </mask>
                    <path fill="#E25E26" d="M27.415 332.64L-151.68 154.248 27.415 -24.142 206.511 154.248z" mask="url(#hsbppdld1v)"/>
                </g>
                <g transform="translate(0 -44) translate(0 44)">
                    <mask id="vyyylla4rx" fill="#fff">
                        <use xlink:href="#f3gqtykbsw"/>
                    </mask>
                    <path fill="#E25E26" d="M30.19 335.403L-148.907 157.012 30.19 -21.378 209.286 157.012z" mask="url(#vyyylla4rx)"/>
                </g>
                <g transform="translate(0 -44) translate(0 44)">
                    <mask id="0o0i75rh0z" fill="#fff">
                        <use xlink:href="#lx8uh82lxy"/>
                    </mask>
                    <path fill="#E46026" d="M32.964 338.166L-146.132 159.776 32.964 -18.614 212.061 159.776z" mask="url(#0o0i75rh0z)"/>
                </g>
                <g transform="translate(0 -44) translate(0 44)">
                    <mask id="xn89wvtqoB" fill="#fff">
                        <use xlink:href="#bcs0shmt0A"/>
                    </mask>
                    <path fill="#E46026" d="M35.739 340.93L-143.357 162.539 35.739 -15.851 214.835 162.539z" mask="url(#xn89wvtqoB)"/>
                </g>
                <g transform="translate(0 -44) translate(0 44)">
                    <mask id="ijhrxt8aqD" fill="#fff">
                        <use xlink:href="#c0vkxk467C"/>
                    </mask>
                    <path fill="#E46026" d="M38.513 343.693L-140.583 165.302 38.513 -13.088 217.609 165.302z" mask="url(#ijhrxt8aqD)"/>
                </g>
                <g transform="translate(0 -44) translate(0 44)">
                    <mask id="i870cgmxdF" fill="#fff">
                        <use xlink:href="#ty4k4p11zE"/>
                    </mask>
                    <path fill="#E76026" d="M41.287 346.457L-137.809 168.065 41.287 -10.324 220.383 168.065z" mask="url(#i870cgmxdF)"/>
                </g>
                <g transform="translate(0 -44) translate(0 44)">
                    <mask id="f2rodfyv7H" fill="#fff">
                        <use xlink:href="#4018e9bcyG"/>
                    </mask>
                    <path fill="#E76226" d="M44.062 349.22L-135.034 170.829 44.062 -7.56 223.158 170.829z" mask="url(#f2rodfyv7H)"/>
                </g>
                <g transform="translate(0 -44) translate(0 44)">
                    <mask id="4z7736zziJ" fill="#fff">
                        <use xlink:href="#ybe2wpv1qI"/>
                    </mask>
                    <path fill="#E76228" d="M46.837 351.984L-132.26 173.593 46.837 -4.797 225.932 173.593z" mask="url(#4z7736zziJ)"/>
                </g>
                <g transform="translate(0 -44) translate(0 44)">
                    <mask id="3i1jok21jL" fill="#fff">
                        <use xlink:href="#22f9k31pfK"/>
                    </mask>
                    <path fill="#E76528" d="M49.611 354.747L-129.485 176.356 49.611 -2.033 228.706 176.356z" mask="url(#3i1jok21jL)"/>
                </g>
                <g transform="translate(0 -44) translate(0 44)">
                    <mask id="ec3iu9i6mN" fill="#fff">
                        <use xlink:href="#a22q4bvhvM"/>
                    </mask>
                    <path fill="#E76528" d="M52.385 357.51L-126.711 179.12 52.385 0.73 231.481 179.12z" mask="url(#ec3iu9i6mN)"/>
                </g>
                <g transform="translate(0 -44) translate(0 44)">
                    <mask id="pfy3u72imP" fill="#fff">
                        <use xlink:href="#1x0oxagwtO"/>
                    </mask>
                    <path fill="#E96528" d="M55.159 360.274L-123.937 181.883 55.159 3.493 234.255 181.883z" mask="url(#pfy3u72imP)"/>
                </g>
                <g transform="translate(0 -44) translate(0 44)">
                    <mask id="8amyuat75R" fill="#fff">
                        <use xlink:href="#4hifm7kikQ"/>
                    </mask>
                    <path fill="#E96828" d="M57.934 363.037L-121.162 184.647 57.934 6.257 237.03 184.647z" mask="url(#8amyuat75R)"/>
                </g>
                <g transform="translate(0 -44) translate(0 44)">
                    <mask id="91remk66tT" fill="#fff">
                        <use xlink:href="#7xiek9jxyS"/>
                    </mask>
                    <path fill="#E96828" d="M60.709 365.801L-118.387 187.41 60.709 9.02 239.804 187.41z" mask="url(#91remk66tT)"/>
                </g>
                <g transform="translate(0 -44) translate(0 44)">
                    <mask id="d73f9yeu4V" fill="#fff">
                        <use xlink:href="#17swps25fU"/>
                    </mask>
                    <path fill="#E96B28" d="M63.482 368.565L-115.613 190.173 63.482 11.784 242.579 190.173z" mask="url(#d73f9yeu4V)"/>
                </g>
                <g transform="translate(0 -44) translate(0 44)">
                    <mask id="ciwoxr16jX" fill="#fff">
                        <use xlink:href="#6eqacxr5zW"/>
                    </mask>
                    <path fill="#EC6B28" d="M66.257 371.328L-112.839 192.937 66.257 14.547 245.353 192.937z" mask="url(#ciwoxr16jX)"/>
                </g>
                <g transform="translate(0 -44) translate(0 44)">
                    <mask id="3g6gm0f0fZ" fill="#fff">
                        <use xlink:href="#7zx34aevsY"/>
                    </mask>
                    <path fill="#EC6B28" d="M68.068 373.131L-111.028 194.74 68.068 16.351 247.164 194.74z" mask="url(#3g6gm0f0fZ)"/>
                </g>
                <g transform="translate(0 -44) translate(0 44)">
                    <mask id="n4hfvkehwab" fill="#fff">
                        <use xlink:href="#oxovhrtktaa"/>
                    </mask>
                    <path fill="#EC6D28" d="M69.878 374.935L-109.218 196.544 69.878 18.155 248.974 196.544z" mask="url(#n4hfvkehwab)"/>
                </g>
                <g transform="translate(0 -44) translate(0 44)">
                    <mask id="kn3w1gkcpad" fill="#fff">
                        <use xlink:href="#4nut77n3zac"/>
                    </mask>
                    <path fill="#EC6D28" d="M71.689 376.739L-107.407 198.347 71.689 19.958 250.785 198.347z" mask="url(#kn3w1gkcpad)"/>
                </g>
                <g transform="translate(0 -44) translate(0 44)">
                    <mask id="14abthqp6af" fill="#fff">
                        <use xlink:href="#7350ugaajae"/>
                    </mask>
                    <path fill="#EC7028" d="M73.499 378.542L-105.596 200.151 73.499 21.762 252.596 200.151z" mask="url(#14abthqp6af)"/>
                </g>
                <g transform="translate(0 -44) translate(0 44)">
                    <mask id="k8hjleqp9ah" fill="#fff">
                        <use xlink:href="#6tejx30gqag"/>
                    </mask>
                    <path fill="#EC7028" d="M75.31 380.346L-103.786 201.955 75.31 23.564 254.407 201.955z" mask="url(#k8hjleqp9ah)"/>
                </g>
                <g transform="translate(0 -44) translate(0 44)">
                    <mask id="9tcn62mzgaj" fill="#fff">
                        <use xlink:href="#lke2aw4ixai"/>
                    </mask>
                    <path fill="#EC7025" d="M77.121 382.149L-101.974 203.759 77.121 25.369 256.217 203.759z" mask="url(#9tcn62mzgaj)"/>
                </g>
                <g transform="translate(0 -44) translate(0 44)">
                    <mask id="ck3ax76seal" fill="#fff">
                        <use xlink:href="#g9kzwf576ak"/>
                    </mask>
                    <path fill="#EC7325" d="M78.932 383.953L-100.164 205.562 78.932 27.172 258.028 205.562z" mask="url(#ck3ax76seal)"/>
                </g>
                <g transform="translate(0 -44) translate(0 44)">
                    <mask id="beyeytplman" fill="#fff">
                        <use xlink:href="#9uzwe7gswam"/>
                    </mask>
                    <path fill="#EC7325" d="M80.743 385.756L-98.353 207.365 80.743 28.976 259.838 207.365z" mask="url(#beyeytplman)"/>
                </g>
                <g transform="translate(0 -44) translate(0 44)">
                    <mask id="xcnsvae9nap" fill="#fff">
                        <use xlink:href="#lgt35b809ao"/>
                    </mask>
                    <path fill="#EC7325" d="M82.553 387.56L-96.543 209.169 82.553 30.78 261.649 209.169z" mask="url(#xcnsvae9nap)"/>
                </g>
                <g transform="translate(0 -44) translate(0 44)">
                    <mask id="mho2b0l1nar" fill="#fff">
                        <use xlink:href="#iy7uenyesaq"/>
                    </mask>
                    <path fill="#EB7526" d="M84.364 389.364L-94.732 210.972 84.364 32.582 263.46 210.972z" mask="url(#mho2b0l1nar)"/>
                </g>
                <g transform="translate(0 -44) translate(0 44)">
                    <mask id="qhxs5sd65at" fill="#fff">
                        <use xlink:href="#xaoej7kn2as"/>
                    </mask>
                    <path fill="#EB7526" d="M86.174 391.167L-92.921 212.776 86.174 34.387 265.271 212.776z" mask="url(#qhxs5sd65at)"/>
                </g>
                <g transform="translate(0 -44) translate(0 44)">
                    <mask id="59v25vplzav" fill="#fff">
                        <use xlink:href="#pe611jjkaau"/>
                    </mask>
                    <path fill="#EE7726" d="M87.985 392.971L-91.111 214.58 87.985 36.19 267.082 214.58z" mask="url(#59v25vplzav)"/>
                </g>
                <g transform="translate(0 -44) translate(0 44)">
                    <mask id="tyef52svjax" fill="#fff">
                        <use xlink:href="#zwcxrixjxaw"/>
                    </mask>
                    <path fill="#EE7726" d="M89.796 394.774L-89.3 216.384 89.796 37.993 268.892 216.384z" mask="url(#tyef52svjax)"/>
                </g>
                <g transform="translate(0 -44) translate(0 44)">
                    <mask id="kc7pc8orpaz" fill="#fff">
                        <use xlink:href="#ftd0iszivay"/>
                    </mask>
                    <path fill="#EE7726" d="M91.607 396.578L-87.489 218.187 91.607 39.797 270.703 218.187z" mask="url(#kc7pc8orpaz)"/>
                </g>
                <g transform="translate(0 -44) translate(0 44)">
                    <mask id="0vbbdefe4aB" fill="#fff">
                        <use xlink:href="#eosz9xq1caA"/>
                    </mask>
                    <path fill="#EE7A26" d="M93.418 398.381L-85.678 219.99 93.418 41.6 272.513 219.99z" mask="url(#0vbbdefe4aB)"/>
                </g>
                <g transform="translate(0 -44) translate(0 44)">
                    <mask id="50lxsje15aD" fill="#fff">
                        <use xlink:href="#thxseyhl3aC"/>
                    </mask>
                    <path fill="#EE7A26" d="M95.228 400.185L-83.868 221.794 95.228 43.405 274.324 221.794z" mask="url(#50lxsje15aD)"/>
                </g>
                <g transform="translate(0 -44) translate(0 44)">
                    <mask id="z608kpqi6aF" fill="#fff">
                        <use xlink:href="#t53ucuq84aE"/>
                    </mask>
                    <path fill="#EE7D23" d="M97.039 401.989L-82.057 223.597 97.039 45.208 276.135 223.597z" mask="url(#z608kpqi6aF)"/>
                </g>
                <g transform="translate(0 -44) translate(0 44)">
                    <mask id="9m1bqhbv3aH" fill="#fff">
                        <use xlink:href="#4igah7kxuaG"/>
                    </mask>
                    <path fill="#EE7D23" d="M98.849 403.792L-80.247 225.401 98.849 47.012 277.946 225.401z" mask="url(#9m1bqhbv3aH)"/>
                </g>
                <g transform="translate(0 -44) translate(0 44)">
                    <mask id="vefk3vnqkaJ" fill="#fff">
                        <use xlink:href="#0vvm9v2opaI"/>
                    </mask>
                    <path fill="#EE7D23" d="M100.66 405.596L-78.436 227.204 100.66 48.815 279.756 227.204z" mask="url(#vefk3vnqkaJ)"/>
                </g>
                <g transform="translate(0 -44) translate(0 44)">
                    <mask id="h4duy47t9aL" fill="#fff">
                        <use xlink:href="#f52gvqtw5aK"/>
                    </mask>
                    <path fill="#F07E22" d="M102.47 407.399L-76.625 229.009 102.47 50.619 281.567 229.009z" mask="url(#h4duy47t9aL)"/>
                </g>
                <g transform="translate(0 -44) translate(0 44)">
                    <mask id="yvw5h7o1naN" fill="#fff">
                        <use xlink:href="#ghw0ymt9eaM"/>
                    </mask>
                    <path fill="#F07E22" d="M104.281 409.203L-74.815 230.812 104.281 52.422 283.378 230.812z" mask="url(#yvw5h7o1naN)"/>
                </g>
                <g transform="translate(0 -44) translate(0 44)">
                    <mask id="22phbutudaP" fill="#fff">
                        <use xlink:href="#bvtnxkthvaO"/>
                    </mask>
                    <path fill="#F08122" d="M106.092 411.006L-73.003 232.615 106.092 54.225 285.188 232.615z" mask="url(#22phbutudaP)"/>
                </g>
                <g transform="translate(0 -44) translate(0 44)">
                    <mask id="6189nqfkyaR" fill="#fff">
                        <use xlink:href="#i1nisc5udaQ"/>
                    </mask>
                    <path fill="#F08122" d="M107.903 412.81L-71.193 234.419 107.903 56.03 286.999 234.419z" mask="url(#6189nqfkyaR)"/>
                </g>
                <g transform="translate(0 -44) translate(0 44)">
                    <mask id="29fmtref4aT" fill="#fff">
                        <use xlink:href="#t5rey1tncaS"/>
                    </mask>
                    <path fill="#F08122" d="M109.714 414.613L-69.382 236.222 109.714 57.833 288.809 236.222z" mask="url(#29fmtref4aT)"/>
                </g>
                <g transform="translate(0 -44) translate(0 44)">
                    <mask id="v68qt343saV" fill="#fff">
                        <use xlink:href="#87krfjrwwaU"/>
                    </mask>
                    <path fill="#F08421" d="M111.524 416.417L-67.572 238.026 111.524 59.637 290.62 238.026z" mask="url(#v68qt343saV)"/>
                </g>
                <g transform="translate(0 -44) translate(0 44)">
                    <mask id="b8athab3jaX" fill="#fff">
                        <use xlink:href="#2exa93wbgaW"/>
                    </mask>
                    <path fill="#F08421" d="M113.335 418.221L-65.761 239.829 113.335 61.44 292.431 239.829z" mask="url(#b8athab3jaX)"/>
                </g>
                <g transform="translate(0 -44) translate(0 44)">
                    <mask id="t7038cdsuaZ" fill="#fff">
                        <use xlink:href="#9booax566aY"/>
                    </mask>
                    <path fill="#F08621" d="M115.145 420.024L-63.95 241.634 115.145 63.244 294.242 241.634z" mask="url(#t7038cdsuaZ)"/>
                </g>
                <g transform="translate(0 -44) translate(0 44)">
                    <mask id="prpe176tlbb" fill="#fff">
                        <use xlink:href="#maa24ogkrba"/>
                    </mask>
                    <path fill="#F08621" d="M116.956 421.828L-62.14 243.437 116.956 65.047 296.053 243.437z" mask="url(#prpe176tlbb)"/>
                </g>
                <g transform="translate(0 -44) translate(0 44)">
                    <mask id="s20uy3suwbd" fill="#fff">
                        <use xlink:href="#nb2dsohg2bc"/>
                    </mask>
                    <path fill="#F08621" d="M118.767 423.631L-60.329 245.24 118.767 66.85 297.863 245.24z" mask="url(#s20uy3suwbd)"/>
                </g>
                <g transform="translate(0 -44) translate(0 44)">
                    <mask id="vnbn3irw7bf" fill="#fff">
                        <use xlink:href="#p952a3j4nbe"/>
                    </mask>
                    <path fill="#F08821" d="M120.578 425.435L-58.518 247.044 120.578 68.654 299.674 247.044z" mask="url(#vnbn3irw7bf)"/>
                </g>
                <g transform="translate(0 -44) translate(0 44)">
                    <mask id="ofrmqrldfbh" fill="#fff">
                        <use xlink:href="#ife82f3dobg"/>
                    </mask>
                    <path fill="#F08821" d="M122.388 427.238L-56.707 248.847 122.388 70.457 301.484 248.847z" mask="url(#ofrmqrldfbh)"/>
                </g>
                <g transform="translate(0 -44) translate(0 44)">
                    <mask id="u4tdiafmsbj" fill="#fff">
                        <use xlink:href="#h47slxxcmbi"/>
                    </mask>
                    <path fill="#F08B21" d="M124.199 429.042L-54.897 250.651 124.199 72.262 303.295 250.651z" mask="url(#u4tdiafmsbj)"/>
                </g>
                <g transform="translate(0 -44) translate(0 44)">
                    <mask id="7ch6x18aebl" fill="#fff">
                        <use xlink:href="#hygp47xjebk"/>
                    </mask>
                    <path fill="#F08B21" d="M126.01 430.846L-53.086 252.454 126.01 74.065 305.106 252.454z" mask="url(#7ch6x18aebl)"/>
                </g>
                <g transform="translate(0 -44) translate(0 44)">
                    <mask id="ijoyfm55ubn" fill="#fff">
                        <use xlink:href="#jksjrlgggbm"/>
                    </mask>
                    <path fill="#F58C21" d="M127.82 432.649L-51.276 254.258 127.82 75.869 306.917 254.258z" mask="url(#ijoyfm55ubn)"/>
                </g>
                <g transform="translate(0 -44) translate(0 44)">
                    <mask id="j5rqthrchbp" fill="#fff">
                        <use xlink:href="#rmysqavd6bo"/>
                    </mask>
                    <path fill="#F48F22" d="M129.631 434.453L-49.465 256.062 129.631 77.672 308.727 256.062z" mask="url(#j5rqthrchbp)"/>
                </g>
                <g transform="translate(0 -44) translate(0 44)">
                    <mask id="ec1uf93rxbr" fill="#fff">
                        <use xlink:href="#kh8feq2wnbq"/>
                    </mask>
                    <path fill="#F48F1F" d="M131.442 436.256L-47.654 257.865 131.442 79.475 310.538 257.865z" mask="url(#ec1uf93rxbr)"/>
                </g>
                <g transform="translate(0 -44) translate(0 44)">
                    <mask id="6le1p1ri5bt" fill="#fff">
                        <use xlink:href="#6zjdu2so2bs"/>
                    </mask>
                    <path fill="#F48F1F" d="M133.253 438.06L-45.843 259.669 133.253 81.279 312.349 259.669z" mask="url(#6le1p1ri5bt)"/>
                </g>
                <g transform="translate(0 -44) translate(0 44)">
                    <mask id="e7cjza1p7bv" fill="#fff">
                        <use xlink:href="#wtr3zsnt6bu"/>
                    </mask>
                    <path fill="#F48F1F" d="M135.063 439.863L-44.032 261.472 135.063 83.082 314.159 261.472z" mask="url(#e7cjza1p7bv)"/>
                </g>
                <g transform="translate(0 -44) translate(0 44)">
                    <mask id="9rh3d27y7bx" fill="#fff">
                        <use xlink:href="#4whyxhptabw"/>
                    </mask>
                    <path fill="#F39120" d="M136.874 441.667L-42.222 263.276 136.874 84.886 315.97 263.276z" mask="url(#9rh3d27y7bx)"/>
                </g>
                <g transform="translate(0 -44) translate(0 44)">
                    <mask id="fhhgmy8jqbz" fill="#fff">
                        <use xlink:href="#kinpwst5sby"/>
                    </mask>
                    <path fill="#F39120" d="M138.685 443.47L-40.411 265.079 138.685 86.69 317.78 265.079z" mask="url(#fhhgmy8jqbz)"/>
                </g>
                <g transform="translate(0 -44) translate(0 44)">
                    <mask id="3w0nqamogbB" fill="#fff">
                        <use xlink:href="#8bzwv9sdxbA"/>
                    </mask>
                    <path fill="#F39320" d="M140.495 445.274L-38.601 266.883 140.495 88.494 319.591 266.883z" mask="url(#3w0nqamogbB)"/>
                </g>
                <g transform="translate(0 -44) translate(0 44)">
                    <mask id="w4awowv18bD" fill="#fff">
                        <use xlink:href="#jlf1v3jnbbC"/>
                    </mask>
                    <path fill="#F39320" d="M142.306 447.078L-36.79 268.686 142.306 90.297 321.402 268.686z" mask="url(#w4awowv18bD)"/>
                </g>
                <g transform="translate(0 -44) translate(0 44)">
                    <mask id="yfviei8eobF" fill="#fff">
                        <use xlink:href="#58tb1wtbtbE"/>
                    </mask>
                    <path fill="#F3941F" d="M144.116 448.881L-34.979 270.491 144.116 92.101 323.213 270.491z" mask="url(#yfviei8eobF)"/>
                </g>
                <g transform="translate(0 -44) translate(0 44)">
                    <mask id="xvnhe3vagbH" fill="#fff">
                        <use xlink:href="#xwdrajhlcbG"/>
                    </mask>
                    <path fill="#F39620" d="M145.927 450.685L-33.169 272.294 145.927 93.904 325.024 272.294z" mask="url(#xvnhe3vagbH)"/>
                </g>
                <g transform="translate(0 -44) translate(0 44)">
                    <mask id="69c0a52vjbJ" fill="#fff">
                        <use xlink:href="#cs0mhp5uebI"/>
                    </mask>
                    <path fill="#F39620" d="M147.738 452.488L-31.358 274.097 147.738 95.707 326.834 274.097z" mask="url(#69c0a52vjbJ)"/>
                </g>
                <g transform="translate(0 -44) translate(0 44)">
                    <mask id="njzjlzka9bL" fill="#fff">
                        <use xlink:href="#vrzzqh5jnbK"/>
                    </mask>
                    <path fill="#F39820" d="M149.549 454.292L-29.547 275.901 149.549 97.511 328.645 275.901z" mask="url(#njzjlzka9bL)"/>
                </g>
                <g transform="translate(0 -44) translate(0 44)">
                    <mask id="4kzrazt0gbN" fill="#fff">
                        <use xlink:href="#4pg5roa69bM"/>
                    </mask>
                    <path fill="#F7991F" d="M151.359 456.095L-27.736 277.704 151.359 99.315 330.455 277.704z" mask="url(#4kzrazt0gbN)"/>
                </g>
                <g transform="translate(0 -44) translate(0 44)">
                    <mask id="9cfx49gjobP" fill="#fff">
                        <use xlink:href="#sj6alxm8obO"/>
                    </mask>
                    <path fill="#F7991F" d="M153.17 457.899L-25.926 279.508 153.17 101.119 332.266 279.508z" mask="url(#9cfx49gjobP)"/>
                </g>
                <g transform="translate(0 -44) translate(0 44)">
                    <mask id="p5fuy1psfbR" fill="#fff">
                        <use xlink:href="#r2qt9nymtbQ"/>
                    </mask>
                    <path fill="#F69B1E" d="M154.981 459.703L-24.115 281.311 154.981 102.922 334.077 281.311z" mask="url(#p5fuy1psfbR)"/>
                </g>
                <g transform="translate(0 -44) translate(0 44)">
                    <mask id="mf158p72mbT" fill="#fff">
                        <use xlink:href="#sllcbve6sbS"/>
                    </mask>
                    <path fill="#F69B1E" d="M156.791 461.506L-22.305 283.115 156.791 104.726 335.888 283.115z" mask="url(#mf158p72mbT)"/>
                </g>
                <g transform="translate(0 -44) translate(0 44)">
                    <mask id="iwlyeycqdbV" fill="#fff">
                        <use xlink:href="#nibpace5qbU"/>
                    </mask>
                    <path fill="#F69E1E" d="M158.602 463.31L-20.494 284.919 158.602 106.529 337.698 284.919z" mask="url(#iwlyeycqdbV)"/>
                </g>
                <g transform="translate(0 -44) translate(0 44)">
                    <mask id="mm7s2anc0bX" fill="#fff">
                        <use xlink:href="#nlz4c6xa9bW"/>
                    </mask>
                    <path fill="#F69E1E" d="M160.413 465.113L-18.683 286.722 160.413 108.332 339.509 286.722z" mask="url(#mm7s2anc0bX)"/>
                </g>
                <g transform="translate(0 -44) translate(0 44)">
                    <mask id="2z7i9nq7xbZ" fill="#fff">
                        <use xlink:href="#ha4khxc4ybY"/>
                    </mask>
                    <path fill="#F69E1E" d="M162.224 466.917L-16.872 288.526 162.224 110.137 341.32 288.526z" mask="url(#2z7i9nq7xbZ)"/>
                </g>
                <g transform="translate(0 -44) translate(0 44)">
                    <mask id="lm1y6elf6cb" fill="#fff">
                        <use xlink:href="#tkkx9yl17ca"/>
                    </mask>
                    <path fill="#F6A01E" d="M164.034 468.72L-15.061 290.329 164.034 111.94 343.13 290.329z" mask="url(#lm1y6elf6cb)"/>
                </g>
                <g transform="translate(0 -44) translate(0 44)">
                    <mask id="nxj54xy6ccd" fill="#fff">
                        <use xlink:href="#8j1zbobepcc"/>
                    </mask>
                    <path fill="#F5A01D" d="M165.845 470.524L-13.251 292.133 165.845 113.744 344.941 292.133z" mask="url(#nxj54xy6ccd)"/>
                </g>
                <g transform="translate(0 -44) translate(0 44)">
                    <mask id="c6kva3862cf" fill="#fff">
                        <use xlink:href="#0vg1h7gmgce"/>
                    </mask>
                    <path fill="#F9A31C" d="M167.656 472.328L-11.44 293.936 167.656 115.547 346.751 293.936z" mask="url(#c6kva3862cf)"/>
                </g>
                <g transform="translate(0 -44) translate(0 44)">
                    <mask id="2kdpl9s17ch" fill="#fff">
                        <use xlink:href="#ia7l38dn3cg"/>
                    </mask>
                    <path fill="#F9A31C" d="M169.466 474.131L-9.63 295.74 169.466 117.351 348.562 295.74z" mask="url(#2kdpl9s17ch)"/>
                </g>
                <g transform="translate(0 -44) translate(0 44)">
                    <mask id="dblwllq77cj" fill="#fff">
                        <use xlink:href="#z6ryysue2ci"/>
                    </mask>
                    <path fill="#F9A31C" d="M171.277 475.935L-7.819 297.543 171.277 119.154 350.373 297.543z" mask="url(#dblwllq77cj)"/>
                </g>
                <g transform="translate(0 -44) translate(0 44)">
                    <mask id="ts1dre9phcl" fill="#fff">
                        <use xlink:href="#54ot9l45gck"/>
                    </mask>
                    <path fill="#F9A51A" d="M173.088 477.738L-6.008 299.347 173.088 120.957 352.184 299.347z" mask="url(#ts1dre9phcl)"/>
                </g>
                <g transform="translate(0 -44) translate(0 44)">
                    <mask id="mgnkfcbo1cn" fill="#fff">
                        <use xlink:href="#q9ugmpdawcm"/>
                    </mask>
                    <path fill="#F9A51A" d="M174.898 479.542L-4.198 301.151 174.898 122.761 353.995 301.151z" mask="url(#mgnkfcbo1cn)"/>
                </g>
                <g transform="translate(0 -44) translate(0 44)">
                    <mask id="se6xq56jecp" fill="#fff">
                        <use xlink:href="#lywsubbd5co"/>
                    </mask>
                    <path fill="#F9A51A" d="M176.709 481.345L-2.387 302.954 176.709 124.565 355.805 302.954z" mask="url(#se6xq56jecp)"/>
                </g>
                <g transform="translate(0 -44) translate(0 44)">
                    <mask id="qe6lupt2acr" fill="#fff">
                        <use xlink:href="#rqwc8baq2cq"/>
                    </mask>
                    <path fill="#F9A819" d="M178.52 483.149L-0.577 304.758 178.52 126.369 357.616 304.758z" mask="url(#qe6lupt2acr)"/>
                </g>
                <g transform="translate(0 -44) translate(0 44)">
                    <mask id="p9bb6juxqct" fill="#fff">
                        <use xlink:href="#0yfaevtuocs"/>
                    </mask>
                    <path fill="#F9A819" d="M180.331 484.952L1.235 306.561 180.331 128.172 359.426 306.561z" mask="url(#p9bb6juxqct)"/>
                </g>
                <g transform="translate(0 -44) translate(0 44)">
                    <mask id="roaes0hd0cv" fill="#fff">
                        <use xlink:href="#5wlootdy1cu"/>
                    </mask>
                    <path fill="#F8AA1A" d="M182.141 486.756L3.045 308.365 182.141 129.976 361.237 308.365z" mask="url(#roaes0hd0cv)"/>
                </g>
                <g transform="translate(0 -44) translate(0 44)">
                    <mask id="mjbesyis1cx" fill="#fff">
                        <use xlink:href="#05ozphggbcw"/>
                    </mask>
                    <path fill="#F8AA1A" d="M183.952 488.56L4.856 310.168 183.952 131.779 363.048 310.168z" mask="url(#mjbesyis1cx)"/>
                </g>
                <g transform="translate(0 -44) translate(0 44)">
                    <mask id="x79zj3ek2cz" fill="#fff">
                        <use xlink:href="#i1dq1m2j0cy"/>
                    </mask>
                    <path fill="#F8AA1A" d="M185.762 490.363L6.666 311.972 185.762 133.582 364.859 311.972z" mask="url(#x79zj3ek2cz)"/>
                </g>
                <g transform="translate(0 -44) translate(0 44)">
                    <mask id="qpf6hnsb7cB" fill="#fff">
                        <use xlink:href="#l317anawscA"/>
                    </mask>
                    <path fill="#F7AC1A" d="M187.573 492.167L8.477 313.776 187.573 135.386 366.67 313.776z" mask="url(#qpf6hnsb7cB)"/>
                </g>
                <g transform="translate(0 -44) translate(0 44)">
                    <mask id="n0v0fveh8cD" fill="#fff">
                        <use xlink:href="#9kdh2dlbzcC"/>
                    </mask>
                    <path fill="#F7AC1A" d="M189.384 493.97L10.288 315.579 189.384 137.19 368.48 315.579z" mask="url(#n0v0fveh8cD)"/>
                </g>
                <g transform="translate(0 -44) translate(0 44)">
                    <mask id="8htcj3ramcF" fill="#fff">
                        <use xlink:href="#2dj00f34fcE"/>
                    </mask>
                    <path fill="#FBAF1A" d="M191.195 495.774L12.098 317.383 191.195 138.994 370.291 317.383z" mask="url(#8htcj3ramcF)"/>
                </g>
                <g transform="translate(0 -44) translate(0 44)">
                    <mask id="doubtszh2cH" fill="#fff">
                        <use xlink:href="#hhjvp40axcG"/>
                    </mask>
                    <path fill="#FBAF1A" d="M193.005 497.577L13.909 319.186 193.005 140.797 372.101 319.186z" mask="url(#doubtszh2cH)"/>
                </g>
                <g transform="translate(0 -44) translate(0 44)">
                    <mask id="e3lwahm8dcJ" fill="#fff">
                        <use xlink:href="#idsp3btghcI"/>
                    </mask>
                    <path fill="#FBAF1A" d="M194.816 499.381L15.72 320.99 194.816 142.601 373.912 320.99z" mask="url(#e3lwahm8dcJ)"/>
                </g>
            </g>
        </g>
    </g>
</svg>
